<svg xmlns="http://www.w3.org/2000/svg" width="56" height="56" fill="currentColor" viewBox="0 0 56 56"><path fill="currentColor" d="M31.01 12.3c.51-.46 1.3-.43 1.77.08l-.93.85.93-.85.01.02a7.91 7.91 0 0 1 .55.66 46 46 0 0 1 1.57 2.1 126.9 126.9 0 0 1 6.16 9.78c2.72 4.72 4.4 8.06 5.4 10.23a45.96 45.96 0 0 1 1.32 3.21v.02h.01l-1.17.38 1.17-.38a1.25 1.25 0 1 1-2.38.76l-.01-.03-.04-.11-.1-.26a350.5 350.5 0 0 1-15.76 4.85l.43 1.6.07.32a6.46 6.46 0 0 1-12.55 3.01L17.04 47l-3.8.97a4.4 4.4 0 0 1-4.63-1.62 21.6 21.6 0 0 1-1.28-1.92c-.37-.65-.73-1.4-1.02-2.06a4.4 4.4 0 0 1 .91-4.82l1.75-1.8A441.72 441.72 0 0 1 31.21 14.4l-.18-.22-.08-.1-.02-.01-.08-.1c-.38-.5-.32-1.23.16-1.67Zm-3.9 31.99c-2.8.78-5.4 1.48-7.65 2.07l.42 1.54a3.96 3.96 0 0 0 7.64-2.05l-.42-1.56Zm-.43-22.4A506 506 0 0 0 9.02 39.26a1.9 1.9 0 0 0-.42 2.09c.28.62.59 1.27.9 1.81.3.54.72 1.14 1.12 1.69.44.6 1.22.87 2.02.68 4.11-1.03 13.89-3.55 23.89-6.6l-.5-1.26a72.7 72.7 0 0 0-3.9-7.58 72.69 72.69 0 0 0-4.62-7.16c-.32-.43-.6-.78-.83-1.06Zm6.04-5.5c-1.4 1.24-2.8 2.5-4.2 3.79.27.32.6.74 1 1.27a75.09 75.09 0 0 1 4.78 7.4 75.1 75.1 0 0 1 4.02 7.85c.26.6.45 1.1.6 1.5 1.81-.58 3.61-1.16 5.37-1.75l-.1-.24c-.96-2.09-2.6-5.36-5.29-10.02-2.69-4.65-4.7-7.7-6.03-9.58l-.15-.21Zm-17.86 4.89a1.25 1.25 0 0 1 0 2.5h-3.28a1.25 1.25 0 0 1 0-2.5h3.28Zm33.94 0a1.25 1.25 0 0 1 0 2.5H45.5a1.25 1.25 0 0 1 0-2.5h3.29ZM16.15 8.48a1.25 1.25 0 0 1 1.76 0l2.33 2.33a1.25 1.25 0 0 1-1.77 1.77l-2.32-2.33a1.25 1.25 0 0 1 0-1.76Zm26.31 0a1.25 1.25 0 1 1 1.77 1.77l-2.32 2.33a1.25 1.25 0 0 1-1.77-1.77l2.32-2.32ZM28.94 7.2V3.92a1.25 1.25 0 0 1 2.5 0V7.2a1.25 1.25 0 0 1-2.5 0Z"/></svg>